Coordinates
version=1
nRows=12
nColumns=23
inDegrees=yes

Units are S.I. units (second, meters, Newtons, ...)
If the header above contains a line with 'inDegrees', this indicates whether rotational values are in degrees (yes) or radians (no).

endheader
time	pelvis_tilt	pelvis_list	pelvis_rotation	pelvis_tx	pelvis_ty	pelvis_tz	hip_flexion_r	hip_adduction_r	hip_rotation_r	knee_angle_r	knee_angle_r_beta	ankle_angle_r	subtalar_angle_r	mtp_angle_r	hip_flexion_l	hip_adduction_l	hip_rotation_l	knee_angle_l	knee_angle_l_beta	ankle_angle_l	subtalar_angle_l	mtp_angle_l
      0.00000000	    -15.34197002	      4.47185876	      3.48708256	      2.16691215	      1.02575520	      1.02327524	     15.68417755	    -13.31461403	     -9.47526217	     93.06228596	      1.62424330	    -28.89878417	    -19.07704489	      0.00000000	     42.06820197	      6.23090524	     -7.89076384	     35.82876135	      0.62532985	      7.65918759	     -8.41450398	      0.00000000
      0.00666667	    -15.77602439	      4.52066370	      3.61720731	      2.16434572	      1.02087174	      1.02285428	     18.35289796	    -13.61300732	     -8.68016607	     95.86430932	      1.67314783	    -28.59637117	    -18.50256245	      0.00000000	     42.60667588	      6.52917352	     -7.13864616	     38.39661391	      0.67014733	      9.69797933	     -9.44019359	      0.00000000
      0.01333333	    -16.24494704	      4.55026613	      3.67737355	      2.16180771	      1.01591519	      1.02250847	     21.09361993	    -13.82766162	     -7.78701189	     98.55451524	      1.72010078	    -28.36483769	    -17.86652215	      0.00000000	     43.07038903	      6.80914410	     -6.41452619	     40.76716602	      0.71152127	     11.73212284	    -10.39776907	      0.00000000
      0.02000000	    -16.63812728	      4.60722295	      3.70471727	      2.15941214	      1.01131594	      1.02215600	     23.75698992	    -14.03977562	     -6.86028804	    101.05055086	      1.76366482	    -28.06719494	    -17.08138129	      0.00000000	     43.26048899	      7.13097291	     -5.71151399	     42.81181179	      0.74720707	     13.71935118	    -11.21831184	      0.00000000
      0.02666667	    -16.97321680	      4.65472798	      3.64335957	      2.15715751	      1.00726474	      1.02190898	     26.38992642	    -14.15458576	     -5.86099405	    103.30474529	      1.80300794	    -27.72587586	    -16.25472711	      0.00000000	     43.17512007	      7.38972017	     -5.11071564	     44.50082188	      0.77668586	     15.61615113	    -11.88847573	      0.00000000
      0.03333333	    -17.25771701	      4.68890978	      3.51624917	      2.15507625	      1.00390448	      1.02176123	     28.98732776	    -14.16655097	     -4.83429624	    105.27125643	      1.83733003	    -27.27270234	    -15.32990156	      0.00000000	     42.81519536	      7.57957359	     -4.60699527	     45.83512329	      0.79997381	     17.44019380	    -12.33206153	      0.00000000
      0.04000000	    -17.44021814	      4.71650796	      3.32583269	      2.15324315	      1.00141426	      1.02172306	     31.46791344	    -14.09426966	     -3.82170244	    106.90802596	      1.86589705	    -26.71714428	    -14.38397596	      0.00000000	     42.11830232	      7.68788003	     -4.23106378	     46.80042090	      0.81682144	     19.18388697	    -12.54520859	      0.00000000
      0.04666667	    -17.49066980	      4.71934374	      3.05862717	      2.15175308	      0.99991317	      1.02184586	     33.77295359	    -13.89919214	     -2.84892931	    108.17699202	      1.88804469	    -26.09618212	    -13.52896287	      0.00000000	     41.05085005	      7.67439345	     -4.00049381	     47.40379923	      0.82735237	     20.80766504	    -12.57020824	      0.00000000
      0.05333333	    -17.55341357	      4.66292165	      2.72446398	      2.15050850	      0.99923892	      1.02217325	     36.06017255	    -13.53987931	     -1.95019616	    109.09335426	      1.90403822	    -25.31535955	    -12.63137066	      0.00000000	     39.79464514	      7.48317277	     -3.97315554	     47.67308502	      0.83205230	     22.37741298	    -12.04185534	      0.00000000
      0.06000000	    -17.48711251	      4.65799542	      2.34820283	      2.14965371	      0.99960437	      1.02256906	     38.12667119	    -13.19488516	     -1.12941398	    109.63561788	      1.91350251	    -24.47771981	    -11.87320284	      0.00000000	     38.16157498	      7.31379563	     -4.01002647	     47.51333347	      0.82926411	     23.64147059	    -11.61566686	      0.00000000
      0.06666667	    -17.36648087	      4.61686864	      1.95476933	      2.14924070	      1.00090256	      1.02307937	     40.01169184	    -12.77603134	     -0.46087491	    109.78725955	      1.91614916	    -23.58095912	    -11.26291359	      0.00000000	     36.26485095	      7.05288912	     -4.17073160	     47.00270870	      0.82035202	     24.70308450	    -10.93550870	      0.00000000
      0.07333333	    -17.17110245	      4.53543707	      1.54964483	      2.14918858	      1.00306896	      1.02369458	     41.67903957	    -12.29412954	      0.04456882	    109.57389382	      1.91242522	    -22.63054533	    -10.83250936	      0.00000000	     34.11337968	      6.72081765	     -4.41198886	     46.17721820	      0.80594450	     25.56163330	     -9.98433431	      0.00000000
